<svg xmlns="http://www.w3.org/2000/svg" width="1125" height="2436" viewBox="0 0 1125 2436"><g id="Layer_2" data-name="Layer 2"><rect width="1125" height="232" fill="#acac45"/><rect y="232" width="1125" height="1019" fill="#ebeb7c"/><rect y="1251" width="1125" height="232" fill="#5c6b99"/><rect y="1483" width="563" height="953" fill="#becbf5"/><rect x="563" y="1483" width="562" height="953" fill="#f5c7c7"/></g><g id="Layer_1" data-name="Layer 1"><path d="M271.06,130.49c-3.69,9.51-8.69,18-14.84,24l-6.81-4.27a58,58,0,0,0,14.27-22.55Zm17.71-12.3v36.24c0,10.75-7.87,10.75-20.5,10.75a42.13,42.13,0,0,0-2.38-7.63c2.46.08,5.5.16,7.87.16,5.09,0,6.73,0,6.73-3.11V118.19H253.67V110.4h26.82V94.25l10.49.57c-.16.82-.73,1.56-2.21,1.72V110.4H315.5v7.79Zm14.68,8.94A155.06,155.06,0,0,1,320,150.33l-7.38,4.27a140.35,140.35,0,0,0-15.82-24Z" fill="#fff"/><path d="M330.26,124.26h68.47v8.2H333.54a3.42,3.42,0,0,1-2.62,1.47Z" fill="#fff"/><path d="M471.14,163.78q-1.84-4.42-4.18-8.85c-17.47,2-42.72,3.69-55.11,4.34a2.19,2.19,0,0,1-1.64,1.72l-2.87-9.92c2.46,0,5.33-.08,8.53-.16,5.25-15.58,12.55-39.44,16.73-55.52l10.66,2.79c-.24.9-1.15,1.31-2.46,1.4-4.18,14.35-10.82,35.17-16.32,51,11.48-.49,28.95-1.72,38.71-2.71a144.31,144.31,0,0,0-12.88-18l6.89-3.77c8.37,9.43,17.71,24.6,22.06,33.95Z" fill="#fff"/><path d="M482.21,133.85c6.15-6.31,18.2-19.92,23.21-25.34,2.46-2.54,4.92-3.77,7.38-3.77s5.08,1.48,7.79,3.77c10.08,9.19,27.38,28,38.95,42.89l-7,6.48c-10.66-15-28-34.44-35.84-41.9-1.56-1.48-2.62-2.3-3.69-2.3-.9.08-2,.9-3.36,2.38-3.28,3.61-14.19,16.48-19.43,22.38a2.87,2.87,0,0,1-1,2.63Zm62-41.16a9.06,9.06,0,1,1-9,9.1A9.08,9.08,0,0,1,544.2,92.69Zm6.15,9.1a6.21,6.21,0,0,0-6.15-6.23,6.19,6.19,0,1,0,6.15,6.23Z" fill="#fff"/><path d="M566.42,124.26H634.9v8.2H569.71a3.44,3.44,0,0,1-2.63,1.47Z" fill="#fff"/><path d="M646.62,117.12a122.29,122.29,0,0,1,21.57,7.47l-3.53,7.13a133.82,133.82,0,0,0-21.48-7.79Zm3.61,39.2c25.67-8.36,44.2-22.22,55.19-46.58a67,67,0,0,0,7.05,5.25c-11,23.78-30.83,39.36-54.86,47.64a2,2,0,0,1-1.15,2.14Zm5.91-59.45a140.29,140.29,0,0,1,21.48,8l-3.85,7a116.81,116.81,0,0,0-21.24-8.45Zm37.8-2.71a66.59,66.59,0,0,1,10.17,11.73l-4.19,3a72.49,72.49,0,0,0-9.84-11.72Zm12-4.75A71.29,71.29,0,0,1,716.08,101l-4.18,3a72.35,72.35,0,0,0-9.76-11.56Z" fill="#fff"/><path d="M719.11,124.59h76.1v8.52h-76.1Z" fill="#fff"/><path d="M876.14,113.76H852.69c1.8,24.68,7.46,46.09,14.76,46.17,2.13,0,3.2-4.68,3.69-15.42A19.35,19.35,0,0,0,878,149.1c-1.32,15.17-4.19,19.11-11.16,19.11-13.85-.08-20.25-25.34-22.38-54.45H802v-7.62h42c-.25-4.76-.41-9.6-.41-14.44l10.66.58c-.08.74-.74,1.23-2.13,1.47-.09,4.1,0,8.29.16,12.39h23.86ZM826.7,132.21v21.4c5.49-1.06,11.23-2.21,16.81-3.36l.57,6.81c-13.69,3.2-28.29,6.48-37.56,8.44a1.57,1.57,0,0,1-1.31,1.32l-3-8.7c4.51-.73,10.25-1.8,16.65-3V132.21H805.05v-7.3h36v7.3Zm35.17-40.75a67,67,0,0,1,11.57,9.67l-5.5,4.76a66.91,66.91,0,0,0-11.31-10.17Z" fill="#fff"/><path d="M456.23,1355.52H432.78l.41,37c.16,10.17-6.4,10.17-22,10.17a30.91,30.91,0,0,0-2-7.46c2.13,0,4.51.08,6.64.08,7.46,0,9.27,0,9.27-2.87l-.33-30.75a114.51,114.51,0,0,1-33.05,30,33.46,33.46,0,0,0-5.74-6.15,106.91,106.91,0,0,0,34-30H389.56v-7.71h35l-.17-17.14,10.33.49c-.08.82-.82,1.4-2.21,1.56l.16,15.09h23.54Z" fill="#fff"/><path d="M464.18,1340.43h51.66l.58-.33,7.46,5.41a3.74,3.74,0,0,1-1.23,1c-7,30.67-21.08,46.08-46.25,55.76a45.1,45.1,0,0,0-5.17-6.81c23-8.44,36.82-23.2,41.58-47.15H464.18Zm62.65-14.19a8.9,8.9,0,1,1-8.94,8.94A8.89,8.89,0,0,1,526.83,1326.24Zm5.9,8.94a5.95,5.95,0,1,0-5.9,6A6,6,0,0,0,532.73,1335.18Z" fill="#fff"/><path d="M541.1,1353.79a122.57,122.57,0,0,1,21.57,7.47l-3.53,7.13a133.82,133.82,0,0,0-21.48-7.79Zm3.61,39.2c25.83-8.45,44.2-22.14,55.18-46.57a71.38,71.38,0,0,0,7.14,5.24c-11.07,23.78-30.67,39.2-55,47.65a1.94,1.94,0,0,1-1.07,2.13Zm5.9-59.45a140.43,140.43,0,0,1,21.49,8l-3.86,7A116.52,116.52,0,0,0,547,1340.1Z" fill="#fff"/><path d="M656.06,1352v50.27h-6.64v-3.45H613.59v-6.15h35.83v-14.35H617v-6.15h32.47v-13.94H615.56V1352Z" fill="#fff"/><path d="M674.68,1336.74c8.36,2.54,18.2,6.89,24.19,10.9L694.6,1355c-5.9-4.1-15.66-8.45-23.78-11.32Zm-1.56,56.09c28.29-8.7,47.48-24.93,57.15-47.56a55,55,0,0,0,7.55,4.75c-10.17,22.39-30,39.94-57.48,49.37a2.65,2.65,0,0,1-1.32,2Z" fill="#fff"/><path d="M380.59,457.83V361.19h-.32l-21,10.72-6.24-20.32,31.2-15.36h23.84v121.6Z" fill="#171b26"/><path d="M514.67,336.23v23.2h-40l-2.24,19.2c1.92-.16,3.68-.32,5.6-.32,18.88,0,40.8,10.4,40.8,38.24,0,23-17.76,43-48.16,43-12.16,0-23.36-2.88-29.28-5.92l5-21.28a55.09,55.09,0,0,0,22.4,5.12c11.36,0,21.76-6.72,21.76-18.88,0-13.6-10.88-20.32-30.24-20.32a75.19,75.19,0,0,0-12.64.8l7-62.88Z" fill="#171b26"/><path d="M533.07,397.35c0-34.24,12.64-62.88,41.76-62.88,31.36,0,40.8,31.84,40.8,62.08,0,39.68-15.36,63-41.28,63C543.31,459.59,533.07,427.91,533.07,397.35Zm54.4-.32c0-26.08-4-40.16-12.8-40.16-8.32,0-13.44,12.48-13.44,40.16s4.64,40.16,13.44,40.16C581.39,437.19,587.47,430.15,587.47,397Z" fill="#171b26"/><path d="M699.14,421.42V427H664.62v37.88h-5.83V427h-34v-5.58h34V401.08c-9.1,1.32-18.69,2.46-27.63,3.29a22.94,22.94,0,0,0-1.64-5c20-2,43.54-5.41,56.42-9.59l4.75,5.08a1.67,1.67,0,0,1-1,.25,3.14,3.14,0,0,1-.82-.08,209.59,209.59,0,0,1-23.13,5h.5c-.09.66-.5,1.06-1.64,1.23v20.17Z" fill="#171b26"/><path d="M777.45,394.36v62.81c0,7.14-3.12,7.55-18.37,7.55a26,26,0,0,0-2.13-5.58c2.95.08,5.74.17,8,.17,6.48,0,7,0,7-2.14V430.44H714.72v34.44h-5.5V394.36Zm-62.73,5.41V425h25.42V399.77ZM745.63,425H772V399.77H745.63Z" fill="#171b26"/><path d="M152.76,1785.55c13.28,3.2,24,14.08,24,30.08,0,20.48-17,37-45.76,37-13.28,0-25-3.2-31.2-7l5.92-21.28c4.64,2.88,14.24,6.24,22.88,6.24,12.48,0,19.52-7.2,19.52-16.32,0-12.16-10.88-17.6-22.56-17.6h-8v-19.68h7.2c9,0,20-4.32,20-14.56,0-7.36-5.28-12.64-15.36-12.64-7.84,0-15.68,3.2-20.32,5.92l-5.44-20.16c6.4-4,19.36-8,32.64-8,24,0,36.8,13.76,36.8,30.08,0,12.48-7.52,22.56-20.32,27.68Z" fill="#171b26"/><path d="M192.44,1790.35c0-34.24,12.64-62.88,41.76-62.88,31.36,0,40.8,31.84,40.8,62.08,0,39.68-15.36,63-41.28,63C202.68,1852.59,192.44,1820.91,192.44,1790.35Zm54.4-.32c0-26.08-4-40.16-12.8-40.16-8.32,0-13.44,12.48-13.44,40.16s4.64,40.16,13.44,40.16C240.76,1830.19,246.84,1823.15,246.84,1790Z" fill="#171b26"/><path d="M358.51,1814.42V1820H324v37.88h-5.82V1820h-34v-5.58h34v-20.34c-9.1,1.32-18.69,2.46-27.63,3.29a22.94,22.94,0,0,0-1.64-5c20-2,43.54-5.41,56.41-9.59l4.76,5.08a1.67,1.67,0,0,1-1,.25,3.11,3.11,0,0,1-.82-.08,209.59,209.59,0,0,1-23.13,5h.49c-.08.66-.49,1.06-1.64,1.23v20.17Z" fill="#171b26"/><path d="M436.82,1787.36v62.81c0,7.14-3.12,7.55-18.37,7.55a26,26,0,0,0-2.13-5.58c2.95.08,5.74.17,8,.17,6.48,0,7,0,7-2.14v-26.73H374.09v34.44h-5.5v-70.52Zm-62.73,5.41V1818h25.42v-25.18ZM405,1818h26.32v-25.18H405Z" fill="#171b26"/><path d="M110.67,1612.67a72.57,72.57,0,0,1,11.52-1c18.36,0,23.64,10.86,23.64,22.08,0,7.26-1.92,13.44-6.24,17.94-4,4.14-10.68,6.42-19,6.42a80.94,80.94,0,0,1-9.9-.48Zm5,41.16a41.13,41.13,0,0,0,5.82.3c12.36,0,19.14-7,19.14-20.1,0-11.88-6.36-18.3-18.24-18.3a35.79,35.79,0,0,0-6.72.6Z"/><path d="M171,1633.31c4.32,1,9.42,4.62,9.42,11.52a12,12,0,0,1-3.66,9c-3.06,3-8,4.32-14.88,4.32a80.66,80.66,0,0,1-8.46-.48v-44.94a49.57,49.57,0,0,1,9.84-1c5.64,0,9.36,1.08,12.06,3.36a10,10,0,0,1,3.42,7.92c0,4.5-3.06,8.4-7.74,10.08Zm-7.26-1.68c6.06,0,10-3.48,10-8.16v-.06c0-5.4-4-7.74-10.2-7.74a21.49,21.49,0,0,0-5.1.42v15.54Zm-5.34,22.26a26,26,0,0,0,4.86.3c6.3,0,11.94-2.46,11.94-9.36s-5.94-9.36-12-9.36h-4.8Z"/><path d="M212.19,1607.39c-6.54,5.46-11.88,15.48-11.88,27.6,0,12.42,5.52,22.32,11.88,27.6v.3h-3.6c-6.06-5.46-11.46-15.54-11.46-27.9s5.4-22.44,11.46-27.9h3.6Z"/><path d="M261.33,1657.79h-4.92l-1.14-20.58c-.36-6.54-.84-15-.78-19.68h-.18c-1.5,5.16-3.36,10.8-5.58,17.16l-8.16,22.92h-3.66l-7.62-22.44c-2.22-6.6-4-12.36-5.22-17.64h-.18c-.12,5.58-.48,13.14-.9,20.16l-1.26,20.1H217l3.18-45.72h6.12l8,23.22c1.92,5.7,3.42,10.56,4.62,15.3h.18c1.14-4.62,2.7-9.42,4.74-15.3l8.34-23.22h6.24Z"/><path d="M294.75,1625.09l-8.7,23.16c-3.9,10.62-6.66,16.74-10.74,20.58a16.47,16.47,0,0,1-6.66,3.84l-1.38-4.2c7.62-2.82,10.56-11.1,10.56-11.76a4.22,4.22,0,0,0-.36-1.38l-11.58-30.24h5.46l7.14,19.86c.84,2.28,1.56,4.86,2.1,6.84h.18c.54-2,1.32-4.44,2.1-7l6.6-19.74Z"/><path d="M320.85,1617.71a15.53,15.53,0,0,0-8-2.1c-6.36,0-8.76,3.9-8.76,7.2,0,4.5,2.76,6.78,8.88,9.36,7.38,3.12,11.16,6.9,11.16,13.44,0,7.26-5.28,12.84-15.12,12.84-4.14,0-8.64-1.26-10.92-2.88l1.38-4.14a18.64,18.64,0,0,0,9.84,2.82c6.12,0,9.72-3.3,9.72-8.22,0-4.5-2.46-7.26-8.4-9.66-6.9-2.58-11.58-6.6-11.58-12.9,0-7,5.64-12.06,14-12.06a18.57,18.57,0,0,1,9.36,2.16Z"/><path d="M355.89,1656.89c4.5,1.2,9.36,2.34,13.14,3.06l-1.5,4.2c-5.7-1.5-11.7-3.36-16.44-5a7.45,7.45,0,0,0-2.58-.66c-10.44-.3-19.08-8.28-19.08-23.16,0-15.06,8.4-24,20-24s19.2,9.24,19.2,23.16c0,12.12-5.22,19.56-12.72,22.14Zm-21.24-21.66c0,9.78,5.28,19.14,14.28,19.14,9.42,0,14.46-9.18,14.46-19.62,0-9.24-4.44-19.26-14.16-19.26C339.09,1615.49,334.65,1625.57,334.65,1635.23Z"/><path d="M400.05,1657.79H376.17v-45.72h5v41.46h18.9Z"/><path d="M402.33,1662.59c6.54-5.46,11.88-15.48,11.88-27.6,0-12.42-5.52-22.32-11.88-27.6v-.3h3.6c6.12,5.46,11.46,15.54,11.46,27.9s-5.34,22.44-11.46,27.9h-3.6Z"/><path d="M709.73,1850.83v-96.64h-.32l-21,10.72-6.24-20.32,31.2-15.36h23.84v121.6Z" fill="#171b26"/><path d="M843.81,1729.23v23.2h-40l-2.24,19.2c1.92-.16,3.69-.32,5.61-.32,18.87,0,40.8,10.4,40.8,38.24,0,23-17.76,43-48.17,43-12.16,0-23.36-2.88-29.28-5.92l5-21.28a55.09,55.09,0,0,0,22.4,5.12c11.37,0,21.77-6.72,21.77-18.88,0-13.6-10.89-20.32-30.25-20.32a75.19,75.19,0,0,0-12.64.8l7-62.88Z" fill="#171b26"/><path d="M935.31,1814.42V1820H900.79v37.88H895V1820h-34v-5.58h34v-20.34c-9.1,1.32-18.7,2.46-27.64,3.29a21.92,21.92,0,0,0-1.64-5c20-2,43.55-5.41,56.42-9.59l4.76,5.08a1.73,1.73,0,0,1-1,.25,3.18,3.18,0,0,1-.82-.08,209.87,209.87,0,0,1-23.12,5h.49c-.08.66-.49,1.06-1.64,1.23v20.17Z" fill="#171b26"/><path d="M1013.62,1787.36v62.81c0,7.14-3.11,7.55-18.37,7.55a25.53,25.53,0,0,0-2.13-5.58c3,.08,5.74.17,8,.17,6.48,0,7,0,7-2.14v-26.73H950.89v34.44H945.4v-70.52Zm-62.73,5.41V1818h25.42v-25.18ZM981.81,1818h26.32v-25.18H981.81Z" fill="#171b26"/><path d="M645.87,1656.41a28.08,28.08,0,0,1-11.4,2c-11.76,0-21.24-7.62-21.24-23.1,0-14.76,9.18-23.94,22.56-23.94,5.46,0,8.64,1.14,10.08,1.86l-1.32,4.2a19.86,19.86,0,0,0-8.64-1.86c-10.38,0-17.46,7-17.46,19.56,0,12,6.48,19.08,17.16,19.08a22.66,22.66,0,0,0,9.18-1.86Z"/><path d="M696.26,1657.79h-4.92l-1.13-20.58c-.37-6.54-.84-15-.79-19.68h-.17c-1.5,5.16-3.37,10.8-5.58,17.16l-8.16,22.92h-3.66l-7.62-22.44c-2.22-6.6-4-12.36-5.22-17.64h-.18c-.12,5.58-.48,13.14-.9,20.16l-1.26,20.1h-4.74l3.18-45.72h6.12l8,23.22c1.92,5.7,3.42,10.56,4.62,15.3h.18c1.14-4.62,2.7-9.42,4.74-15.3l8.33-23.22h6.24Z"/><path d="M725.61,1617.71a15.53,15.53,0,0,0-8-2.1c-6.36,0-8.76,3.9-8.76,7.2,0,4.5,2.76,6.78,8.88,9.36,7.38,3.12,11.15,6.9,11.15,13.44,0,7.26-5.27,12.84-15.11,12.84-4.14,0-8.64-1.26-10.92-2.88l1.38-4.14a18.64,18.64,0,0,0,9.84,2.82c6.12,0,9.72-3.3,9.72-8.22,0-4.5-2.46-7.26-8.4-9.66-6.9-2.58-11.58-6.6-11.58-12.9,0-7,5.64-12.06,14-12.06a18.57,18.57,0,0,1,9.36,2.16Z"/><path d="M760.82,1607.39c-6.54,5.46-11.88,15.48-11.88,27.6,0,12.42,5.52,22.32,11.88,27.6v.3h-3.6c-6.06-5.46-11.46-15.54-11.46-27.9s5.4-22.44,11.46-27.9h3.6Z"/><path d="M816.2,1612.13l-12.6,45.66h-5.1l-5.94-24.42a132.31,132.31,0,0,1-3.06-15.12h-.12a132.47,132.47,0,0,1-3.59,15.06l-6.6,24.48h-5.11l-11.33-45.66H768l5.58,23.76c1.31,5.76,2.58,11.28,3.35,15.84h.19a161.73,161.73,0,0,1,3.65-15.9l6.3-23.7h5l5.76,23.64c1.26,5.46,2.58,10.92,3.24,15.9h.18c.9-5.22,2.16-10.26,3.6-15.9l6.18-23.64Z"/><path d="M849.56,1641.17c0,12.18-8,17.34-15.3,17.34-8.39,0-14.87-6.3-14.87-16.86,0-11.16,7-17.34,15.29-17.34C843.62,1624.31,849.56,1631.15,849.56,1641.17Zm-15.06-13c-7.08,0-10,7-10,13.26,0,7.26,4,13.14,9.89,13.14s10.08-5.88,10.08-13.26C844.46,1635.53,841.64,1628.21,834.5,1628.21Z"/><path d="M872.06,1629.29a15,15,0,0,0-1.8-.12c-5.4,0-8.16,5.34-8.16,10.86v17.76h-5v-22.92c0-3.48-.06-6.66-.24-9.78h4.38l.24,6.3h.18c1.44-4.08,4.86-7,8.88-7a12.78,12.78,0,0,1,1.5.18Z"/><path d="M904.28,1649.69c0,2.64.12,5.88.24,8.1h-4.44l-.24-5.58h-.18a11.57,11.57,0,0,1-10.68,6.3c-7.56,0-13.44-6.54-13.44-16.62,0-11,6.48-17.52,14.1-17.52,4.8,0,8,2.34,9.54,5h.12v-19.62h5Zm-5-11.52c0-6.54-4.62-9.78-8.82-9.78-6.18,0-9.84,5.76-9.84,13.26,0,6.9,3.24,12.78,9.66,12.78,5.4,0,9-4.74,9-10Z"/><path d="M918.8,1630.61a12.11,12.11,0,0,1,11.16-6.3c7.74,0,13.32,6.66,13.32,16.68,0,12-7,17.52-14.22,17.52a11.11,11.11,0,0,1-9.84-5.22h-.12v17.88h-5v-35.58c0-4.26-.12-7.56-.24-10.56h4.5l.3,5.58Zm.3,14.16c0,6.36,4.74,9.72,9.18,9.72,6.42,0,10-5.52,10-13.32,0-6.78-3.42-12.78-9.78-12.78-5.58,0-9.36,5.4-9.36,10.14Z"/><path d="M965.72,1629.29a15,15,0,0,0-1.8-.12c-5.4,0-8.16,5.34-8.16,10.86v17.76h-5v-22.92c0-3.48-.06-6.66-.24-9.78h4.38l.24,6.3h.18c1.44-4.08,4.86-7,8.88-7a12.78,12.78,0,0,1,1.5.18Z"/><path d="M994.7,1656.41a23.72,23.72,0,0,1-10.26,2c-9.54,0-15.24-6.72-15.24-16.5,0-10.26,5.76-17.64,14.58-17.64,10.08,0,12.66,9.24,12.66,14.94,0,1.14-.06,2-.12,2.76H974.06c.06,9.06,5.22,12.48,11.1,12.48a20.67,20.67,0,0,0,8.58-1.68Zm-3.18-18.12c.06-4.44-1.8-10.2-8.22-10.2-6,0-8.64,5.7-9.12,10.2Z"/><path d="M1019.18,1630.07a11.71,11.71,0,0,0-6.36-1.92c-3.6,0-5.52,2.22-5.52,4.86,0,2.82,1.86,4.14,6.06,5.94,5.28,2.16,8.34,4.92,8.34,9.84,0,5.82-4.44,9.66-11.58,9.66a17.31,17.31,0,0,1-8.58-2.22l1.38-3.84a15.54,15.54,0,0,0,7.38,2.22c4.38,0,6.54-2.34,6.54-5.28s-1.74-4.74-6.06-6.48c-5.52-2.22-8.34-5.28-8.34-9.24,0-5.1,4.08-9.3,10.68-9.3a14.48,14.48,0,0,1,7.5,2Z"/><path d="M1044.62,1630.07a11.71,11.71,0,0,0-6.36-1.92c-3.6,0-5.52,2.22-5.52,4.86,0,2.82,1.86,4.14,6.06,5.94,5.28,2.16,8.34,4.92,8.34,9.84,0,5.82-4.44,9.66-11.58,9.66a17.31,17.31,0,0,1-8.58-2.22l1.38-3.84a15.54,15.54,0,0,0,7.38,2.22c4.38,0,6.54-2.34,6.54-5.28s-1.74-4.74-6.06-6.48c-5.52-2.22-8.34-5.28-8.34-9.24,0-5.1,4.08-9.3,10.68-9.3a14.48,14.48,0,0,1,7.5,2Z"/><path d="M1050.74,1662.59c6.54-5.46,11.88-15.48,11.88-27.6,0-12.42-5.52-22.32-11.88-27.6v-.3h3.6c6.12,5.46,11.46,15.54,11.46,27.9s-5.34,22.44-11.46,27.9h-3.6Z"/><path d="M553.3,698,331,881.28v198.41A19.32,19.32,0,0,0,350.34,1099l135.42-.35A19.32,19.32,0,0,0,505,1079.34v-116A19.3,19.3,0,0,1,524.31,944h77.38A19.3,19.3,0,0,1,621,963.31v115.33A19.32,19.32,0,0,0,640.27,1098h-.63l135.07.37a19.3,19.3,0,0,0,19.29-19.3V881.15L571.75,698a14.7,14.7,0,0,0-18.45,0ZM904.89,823,804,739.85V572.69A14.8,14.8,0,0,0,789.52,558H721.94A15.54,15.54,0,0,0,707,572.69v87.63L599.41,571.43a57.91,57.91,0,0,0-73.61,0L220.33,823a14.46,14.46,0,0,0-1.94,20.38h0l30.78,37.41a14.48,14.48,0,0,0,20.38,2l0,0L553.44,649a14.69,14.69,0,0,1,18.46,0l283.87,233.8a14.47,14.47,0,0,0,20.39-1.93h0l30.77-37.41a14.49,14.49,0,0,0-2-20.39l-.06,0Z" fill="#fff"/><path d="M845.3,1978.77c-77.95,0-141.42,63.41-141.42,141.42s63.47,141.43,141.42,141.43,141.43-63.47,141.43-141.43S923.26,1978.77,845.3,1978.77ZM718.13,2120.19a126.3,126.3,0,0,1,11-51.72l60.68,166.18A127.28,127.28,0,0,1,718.13,2120.19ZM845.3,2247.36a126.45,126.45,0,0,1-35.92-5.19l38.15-110.86,39.06,107.1a18.37,18.37,0,0,0,.91,1.77A127.26,127.26,0,0,1,845.3,2247.36Zm17.51-186.76c7.64-.4,14.54-1.2,14.54-1.2,6.85-.8,6-10.89-.79-10.49,0,0-20.59,1.6-33.88,1.6-12.49,0-33.47-1.6-33.47-1.6-6.85-.4-7.65,10.09-.8,10.49,0,0,6.5.8,13.34,1.2l19.79,54.29-27.83,83.43-46.3-137.72c7.64-.4,14.54-1.2,14.54-1.2,6.84-.8,6-10.89-.8-10.49,0,0-20.59,1.6-33.87,1.6-2.4,0-5.19-.06-8.22-.18a127.18,127.18,0,0,1,192.13-23.95c-.57-.05-1.09-.11-1.66-.11-12.49,0-21.32,10.89-21.32,22.58,0,10.5,6,19.33,12.48,29.83,4.85,8.44,10.5,19.33,10.5,35.07,0,10.89-4.17,23.49-9.7,41.12l-12.66,42.37-46-136.64Zm46.42,169.48,38.84-112.28c7.24-18.14,9.69-32.62,9.69-45.57a93.75,93.75,0,0,0-.85-13.06,127.2,127.2,0,0,1-47.68,170.91Z" fill="#fff"/><path d="M392,2019.2v25.2c0,22.21-55.32,40.33-123.5,40.33S145,2066.61,145,2044.4v-25.2c0-22.21,55.32-40.33,123.5-40.33S392,1997,392,2019.2Zm0,56.89v56.71c0,22.22-55.32,40.33-123.5,40.33S145,2155,145,2132.8v-56.71c26.53,18.28,75.1,26.78,123.5,26.78S365.47,2094.37,392,2076.09Zm0,88.4v56.71c0,22.21-55.32,40.32-123.5,40.32S145,2243.41,145,2221.2v-56.71c26.53,18.27,75.1,26.78,123.5,26.78S365.47,2182.76,392,2164.49Z" fill="#fff"/></g></svg>