<svg xmlns="http://www.w3.org/2000/svg" viewBox="0 0 101 88"><defs><style>.cls-1{fill:#999;}</style></defs><g id="Layer_2" data-name="Layer 2"><g id="service"><path class="cls-1" d="M91.57,44H76V31.57A12.57,12.57,0,0,1,88.57,19h5.69a.74.74,0,0,0,.74-.74V.74A.74.74,0,0,0,94.26,0H62a5,5,0,0,0-5,5V78.57A9.43,9.43,0,0,0,66.43,88H91.57A9.43,9.43,0,0,0,101,78.57V53.43A9.43,9.43,0,0,0,91.57,44Zm-56,0H19V31.57A12.57,12.57,0,0,1,31.57,19h5.69a.74.74,0,0,0,.74-.74V.74A.74.74,0,0,0,37.26,0H5A5,5,0,0,0,0,5V78.57A9.43,9.43,0,0,0,9.43,88H35.57A9.43,9.43,0,0,0,45,78.57V53.43A9.43,9.43,0,0,0,35.57,44Z"/></g></g></svg>